<svg xmlns="http://www.w3.org/2000/svg" viewBox="0 0 199 38.79"><defs><style>.cls-1{fill:#d2d2d3}.cls-2{fill:#c81c14}.cls-3{fill:#00508e}</style></defs><title>アセット 1</title><g id="レイヤー_2" data-name="レイヤー 2"><g id="レイヤー_1-2" data-name="レイヤー 1"><path class="cls-1" d="M11.78 36.51a2.29 2.29 0 0 1-2.29 2.28h-7.2A2.29 2.29 0 0 1 0 36.51v-7.17a2.29 2.29 0 0 1 2.29-2.28h7.2a2.29 2.29 0 0 1 2.29 2.28zm0-13.51a2.29 2.29 0 0 1-2.29 2.28h-7.2A2.29 2.29 0 0 1 0 23v-7.19a2.29 2.29 0 0 1 2.29-2.28h7.2a2.29 2.29 0 0 1 2.29 2.28z"/><path class="cls-2" d="M11.78 9.46a2.29 2.29 0 0 1-2.29 2.28h-7.2A2.29 2.29 0 0 1 0 9.46V2.28A2.29 2.29 0 0 1 2.29 0h7.2a2.29 2.29 0 0 1 2.29 2.28z"/><path class="cls-3" d="M25.35 36.51a2.29 2.29 0 0 1-2.29 2.28h-7.2a2.29 2.29 0 0 1-2.29-2.28v-7.17a2.29 2.29 0 0 1 2.29-2.28h7.2a2.29 2.29 0 0 1 2.29 2.28zm0-13.51a2.29 2.29 0 0 1-2.29 2.28h-7.2A2.29 2.29 0 0 1 13.57 23v-7.19a2.29 2.29 0 0 1 2.29-2.28h7.2a2.29 2.29 0 0 1 2.29 2.28zm13.57 13.51a2.29 2.29 0 0 1-2.29 2.28h-7.2a2.29 2.29 0 0 1-2.29-2.28v-7.17a2.29 2.29 0 0 1 2.29-2.28h7.2a2.29 2.29 0 0 1 2.29 2.28zm0-13.51a2.29 2.29 0 0 1-2.29 2.28h-7.2A2.29 2.29 0 0 1 27.14 23v-7.19a2.29 2.29 0 0 1 2.29-2.28h7.2a2.29 2.29 0 0 1 2.29 2.28zm0-13.54a2.29 2.29 0 0 1-2.29 2.28h-7.2a2.29 2.29 0 0 1-2.29-2.28V2.28A2.29 2.29 0 0 1 29.43 0h7.2a2.29 2.29 0 0 1 2.29 2.28z"/><path d="M59.08 12.36H52v14.12h7c2.71 0 4.38-1.45 4.38-3.79v-6.54c.08-2.34-1.59-3.79-4.3-3.79zm.59 11.72H54.9v-9.32h4.77c.68 0 .95.26.95.95v7.43c0 .67-.27.94-.95.94zm6.24-13.15h3.13v2.93h-3.13zm.2 4.07h2.73v11.48h-2.73zm12.5.57a4.69 4.69 0 0 0-2.88-.57h-.63c-2.26 0-3.61 1.22-3.61 3.27v4.94c0 2 1.35 3.26 3.61 3.26h.63a4.69 4.69 0 0 0 2.88-.56v1.59a1 1 0 0 1 0 .37.92.92 0 0 1-.31 0h-6.24v2.24h5.3c2.51 0 4-1.34 4-3.67V15h-2.75zm-4.39 7.91V18c0-.69.17-.74.49-.76h3.39c.33 0 .5.07.5.76v5.82c0 .34-.09.42-.48.42H74.8c-.43 0-.58-.06-.58-.76zM84.38 15h2.73v11.48h-2.73zm-.21-4.07h3.13v2.93h-3.13zm9.53 1.43h-2L91 15h-1.7v2.24H91v6c0 2.12 1.33 3.28 3.75 3.28h2.15v-2.28h-2.62c-.47 0-.58-.08-.58-.82v-6.18h3.2V15h-3.2zM104.54 15h-4.91v2.24h5.65c.18 0 .38 0 .38.56v1.47h-3.51c-2.26 0-3.61 1.22-3.61 3.27v.67c0 2 1.35 3.26 3.61 3.26h.63a4.68 4.68 0 0 0 2.88-.56v.56h2.71v-8.2c-.01-1.98-1.51-3.27-3.83-3.27zm-3.28 8.48v-1.2c0-.69.17-.74.49-.76h3.9v2.31c0 .34-.09.42-.48.42h-3.34c-.42-.01-.57-.07-.57-.77zm9.55-11.12h2.73v14.12h-2.73zm11.88-1.43h2.85v15.54h-2.85zm12.41 4.64a4.68 4.68 0 0 0-2.88-.56h-.63c-2.26 0-3.62 1.22-3.62 3.27v4.94c0 2 1.35 3.26 3.62 3.26h.63a4.68 4.68 0 0 0 2.88-.56v.56h2.71V10.93h-2.71zm-4.39 7.91V18c0-.69.17-.74.49-.76h3.38c.33 0 .5.07.5.76v5.82c0 .34-.09.42-.48.42h-3.32c-.42 0-.57-.06-.57-.76zM146.57 15h-2.5c-2.32 0-3.82 1.28-3.82 3.27v4.94c0 2 1.5 3.26 3.82 3.26h6.32v-2.23h-7c-.18 0-.37 0-.37-.56v-1.84h7.4v-3.57c-.03-1.98-1.53-3.27-3.85-3.27zm-3.21 2.24h3.93c.33 0 .38.35.38.56v1.8H143v-1.8c0-.21 0-.56.36-.56zM159.05 15h-.63a4.69 4.69 0 0 0-2.88.56V15h-2.71v11.48h2.73V18c0-.7.17-.74.48-.76h3.4c.33 0 .5.07.5.76v8.47h2.73v-8.2c-.01-2.05-1.36-3.27-3.62-3.27zm9.6-2.64h-2L166 15h-1.7v2.24h1.63v6c0 2.12 1.33 3.28 3.75 3.28h2.17v-2.28h-2.61c-.47 0-.58-.08-.58-.82v-6.18h3.19V15h-3.19zm5.44 2.64h2.73v11.48h-2.73zm-.2-4.07h3.13v2.93h-3.13zm9.52 1.43h-2l-.65 2.64h-1.7v2.24h1.63v6c0 2.12 1.33 3.28 3.75 3.28h2.17v-2.28H184c-.47 0-.58-.08-.58-.82v-6.18h3.2V15h-3.2zM196.27 15l-2.93 8.56-2.91-8.56h-2.74l4.44 12.49-.89 2.65h2.38L199 15h-2.73z"/></g></g></svg>